<svg width="28" height="25" viewBox="0 0 28 25" fill="none" xmlns="http://www.w3.org/2000/svg">
<path d="M9.99996 0.666687L7.55996 3.33335H3.33329C1.86663 3.33335 0.666626 4.53335 0.666626 6.00002V22C0.666626 23.4667 1.86663 24.6667 3.33329 24.6667H24.6666C26.1333 24.6667 27.3333 23.4667 27.3333 22V6.00002C27.3333 4.53335 26.1333 3.33335 24.6666 3.33335H20.44L18 0.666687H9.99996ZM14 20.6667C10.32 20.6667 7.33329 17.68 7.33329 14C7.33329 10.32 10.32 7.33335 14 7.33335C17.68 7.33335 20.6666 10.32 20.6666 14C20.6666 17.68 17.68 20.6667 14 20.6667Z" fill="#2A7AE4"/>
</svg>
