<svg width="23" height="31" viewBox="0 0 23 31" fill="none" xmlns="http://www.w3.org/2000/svg">
<path d="M13.3333 2.99998C13.3333 1.53331 14.5333 0.333313 16 0.333313C17.4667 0.333313 18.6667 1.53331 18.6667 2.99998C18.6667 4.46665 17.4667 5.66665 16 5.66665C14.5333 5.66665 13.3333 4.46665 13.3333 2.99998ZM5.66667 29C5.12 29 4.66667 29.4533 4.66667 30C4.66667 30.5466 5.12 31 5.66667 31C6.21333 31 6.66667 30.5466 6.66667 30C6.66667 29.4533 6.21333 29 5.66667 29ZM17 29C16.4533 29 16 29.4533 16 30C16 30.5466 16.4533 31 17 31C17.5467 31 18 30.5466 18 30C18 29.4533 17.5467 29 17 29ZM21.6533 24.3333C21.3333 24.3333 21.0533 24.48 20.8667 24.7333C20.1333 25.7066 18.9733 26.3333 17.6667 26.3333H17.3333V18.3333L11.5733 14.7733L13.9733 10.92C15.5067 13.3733 18.24 15 21.3333 15V12.3333C18.8667 12.3333 16.7467 10.84 15.8267 8.70665L15.1333 7.09331C14.88 6.51998 14.1467 5.66665 12.9333 5.66665H5.33333L2 11L4.26667 12.4133L6.8 8.33331H9.93333L6.73333 13.4533C6.32 14.12 6.21333 14.9333 6.45333 15.68L8.24 21.2133L4.08 26.2266C3.14667 26.0133 2.34667 25.4666 1.8 24.7333C1.61333 24.48 1.32 24.3333 1 24.3333C0.413333 24.3333 0 24.8133 0 25.3333C0 25.5333 0.0666668 25.7466 0.2 25.9333C1.29333 27.4 3.04 28.3333 5 28.3333H17.6667C19.6267 28.3333 21.3733 27.4 22.4667 25.9333C22.6 25.7466 22.6667 25.5333 22.6667 25.3333C22.6667 24.8133 22.24 24.3333 21.6533 24.3333ZM14.6667 26.3333H7.46667L11.3333 21.6666L10 17.2666L14.6667 20.2V26.3333Z" fill="#2A7AE4"/>
</svg>
